<mxfile host="Electron" agent="Mozilla/5.0 (Windows NT 10.0; Win64; x64) AppleWebKit/537.36 (KHTML, like Gecko) draw.io/25.0.2 Chrome/128.0.6613.186 Electron/32.2.5 Safari/537.36" version="25.0.2">
  <diagram name="Page-1" id="-pmAG55PYEJWRh5QnQPN">
    <mxGraphModel dx="1615" dy="955" grid="1" gridSize="10" guides="1" tooltips="1" connect="1" arrows="1" fold="1" page="1" pageScale="1" pageWidth="850" pageHeight="1100" math="0" shadow="0">
      <root>
        <mxCell id="0" />
        <mxCell id="1" parent="0" />
        <mxCell id="vUmxkYCK4KYUpSk-L96z-42" value="" style="group" vertex="1" connectable="0" parent="1">
          <mxGeometry x="39.99999999999994" y="70" width="770" height="960" as="geometry" />
        </mxCell>
        <mxCell id="vUmxkYCK4KYUpSk-L96z-1" value="" style="rounded=0;whiteSpace=wrap;html=1;rotation=90;" vertex="1" parent="vUmxkYCK4KYUpSk-L96z-42">
          <mxGeometry x="-94.99999999999994" y="95" width="960" height="770" as="geometry" />
        </mxCell>
        <mxCell id="vUmxkYCK4KYUpSk-L96z-2" value="" style="rounded=0;whiteSpace=wrap;html=1;" vertex="1" parent="vUmxkYCK4KYUpSk-L96z-42">
          <mxGeometry x="173.00000000000006" y="100" width="415" height="760" as="geometry" />
        </mxCell>
        <mxCell id="vUmxkYCK4KYUpSk-L96z-3" value="Admin" style="shape=umlActor;verticalLabelPosition=bottom;verticalAlign=top;html=1;outlineConnect=0;" vertex="1" parent="vUmxkYCK4KYUpSk-L96z-42">
          <mxGeometry x="115.00000000000006" y="450" width="30" height="60" as="geometry" />
        </mxCell>
        <mxCell id="vUmxkYCK4KYUpSk-L96z-4" value="" style="endArrow=none;html=1;rounded=0;entryX=0.249;entryY=0.937;entryDx=0;entryDy=0;entryPerimeter=0;" edge="1" parent="vUmxkYCK4KYUpSk-L96z-42" target="vUmxkYCK4KYUpSk-L96z-5">
          <mxGeometry width="50" height="50" relative="1" as="geometry">
            <mxPoint x="155.00000000000006" y="480" as="sourcePoint" />
            <mxPoint x="45.00000000000006" y="250" as="targetPoint" />
          </mxGeometry>
        </mxCell>
        <mxCell id="vUmxkYCK4KYUpSk-L96z-7" value="" style="endArrow=none;html=1;rounded=0;entryX=0.299;entryY=0.931;entryDx=0;entryDy=0;entryPerimeter=0;" edge="1" parent="vUmxkYCK4KYUpSk-L96z-42" target="vUmxkYCK4KYUpSk-L96z-11">
          <mxGeometry width="50" height="50" relative="1" as="geometry">
            <mxPoint x="155.00000000000006" y="480.36" as="sourcePoint" />
            <mxPoint x="303.7692025991587" y="340" as="targetPoint" />
          </mxGeometry>
        </mxCell>
        <mxCell id="vUmxkYCK4KYUpSk-L96z-8" value="" style="group" vertex="1" connectable="0" parent="vUmxkYCK4KYUpSk-L96z-42">
          <mxGeometry x="270.00000000000006" y="170" width="110" height="70" as="geometry" />
        </mxCell>
        <mxCell id="vUmxkYCK4KYUpSk-L96z-9" value="" style="group" vertex="1" connectable="0" parent="vUmxkYCK4KYUpSk-L96z-8">
          <mxGeometry width="110" height="70" as="geometry" />
        </mxCell>
        <mxCell id="vUmxkYCK4KYUpSk-L96z-5" value="" style="ellipse;whiteSpace=wrap;html=1;" vertex="1" parent="vUmxkYCK4KYUpSk-L96z-9">
          <mxGeometry width="110" height="70" as="geometry" />
        </mxCell>
        <mxCell id="vUmxkYCK4KYUpSk-L96z-6" value="Sign In&amp;nbsp;&lt;span style=&quot;background-color: initial;&quot;&gt;Admin&lt;/span&gt;" style="text;html=1;align=center;verticalAlign=middle;whiteSpace=wrap;rounded=0;" vertex="1" parent="vUmxkYCK4KYUpSk-L96z-9">
          <mxGeometry x="15" y="20" width="80" height="30" as="geometry" />
        </mxCell>
        <mxCell id="vUmxkYCK4KYUpSk-L96z-10" value="" style="group" vertex="1" connectable="0" parent="vUmxkYCK4KYUpSk-L96z-42">
          <mxGeometry x="270.00000000000006" y="310" width="110" height="70" as="geometry" />
        </mxCell>
        <mxCell id="vUmxkYCK4KYUpSk-L96z-11" value="" style="ellipse;whiteSpace=wrap;html=1;" vertex="1" parent="vUmxkYCK4KYUpSk-L96z-10">
          <mxGeometry width="110" height="70" as="geometry" />
        </mxCell>
        <mxCell id="vUmxkYCK4KYUpSk-L96z-12" value="Manage Doctors" style="text;html=1;align=center;verticalAlign=middle;whiteSpace=wrap;rounded=0;" vertex="1" parent="vUmxkYCK4KYUpSk-L96z-10">
          <mxGeometry x="15" y="20" width="80" height="30" as="geometry" />
        </mxCell>
        <mxCell id="vUmxkYCK4KYUpSk-L96z-13" value="" style="endArrow=none;html=1;rounded=0;entryX=0;entryY=0.5;entryDx=0;entryDy=0;" edge="1" parent="vUmxkYCK4KYUpSk-L96z-42" target="vUmxkYCK4KYUpSk-L96z-15">
          <mxGeometry width="50" height="50" relative="1" as="geometry">
            <mxPoint x="155.00000000000006" y="480" as="sourcePoint" />
            <mxPoint x="275.00000000000006" y="480" as="targetPoint" />
          </mxGeometry>
        </mxCell>
        <mxCell id="vUmxkYCK4KYUpSk-L96z-14" value="" style="group" vertex="1" connectable="0" parent="vUmxkYCK4KYUpSk-L96z-42">
          <mxGeometry x="270.00000000000006" y="445" width="110" height="70" as="geometry" />
        </mxCell>
        <mxCell id="vUmxkYCK4KYUpSk-L96z-15" value="" style="ellipse;whiteSpace=wrap;html=1;" vertex="1" parent="vUmxkYCK4KYUpSk-L96z-14">
          <mxGeometry width="110" height="70" as="geometry" />
        </mxCell>
        <mxCell id="vUmxkYCK4KYUpSk-L96z-16" value="Manage Patients" style="text;html=1;align=center;verticalAlign=middle;whiteSpace=wrap;rounded=0;" vertex="1" parent="vUmxkYCK4KYUpSk-L96z-14">
          <mxGeometry x="15" y="20" width="80" height="30" as="geometry" />
        </mxCell>
        <mxCell id="vUmxkYCK4KYUpSk-L96z-17" value="" style="endArrow=none;html=1;rounded=0;entryX=0.276;entryY=0.054;entryDx=0;entryDy=0;entryPerimeter=0;" edge="1" parent="vUmxkYCK4KYUpSk-L96z-42" target="vUmxkYCK4KYUpSk-L96z-19">
          <mxGeometry width="50" height="50" relative="1" as="geometry">
            <mxPoint x="155.00000000000006" y="480" as="sourcePoint" />
            <mxPoint x="285.00000000000006" y="520" as="targetPoint" />
          </mxGeometry>
        </mxCell>
        <mxCell id="vUmxkYCK4KYUpSk-L96z-18" value="" style="group" vertex="1" connectable="0" parent="vUmxkYCK4KYUpSk-L96z-42">
          <mxGeometry x="270.00000000000006" y="580" width="110" height="70" as="geometry" />
        </mxCell>
        <mxCell id="vUmxkYCK4KYUpSk-L96z-19" value="" style="ellipse;whiteSpace=wrap;html=1;" vertex="1" parent="vUmxkYCK4KYUpSk-L96z-18">
          <mxGeometry width="110" height="70" as="geometry" />
        </mxCell>
        <mxCell id="vUmxkYCK4KYUpSk-L96z-20" value="Manage Polies" style="text;html=1;align=center;verticalAlign=middle;whiteSpace=wrap;rounded=0;" vertex="1" parent="vUmxkYCK4KYUpSk-L96z-18">
          <mxGeometry x="15" y="20" width="80" height="30" as="geometry" />
        </mxCell>
        <mxCell id="vUmxkYCK4KYUpSk-L96z-21" value="" style="endArrow=none;html=1;rounded=0;entryX=0.252;entryY=0.061;entryDx=0;entryDy=0;entryPerimeter=0;" edge="1" parent="vUmxkYCK4KYUpSk-L96z-42" target="vUmxkYCK4KYUpSk-L96z-23">
          <mxGeometry width="50" height="50" relative="1" as="geometry">
            <mxPoint x="155.00000000000006" y="480" as="sourcePoint" />
            <mxPoint x="281.00000000000006" y="240" as="targetPoint" />
          </mxGeometry>
        </mxCell>
        <mxCell id="vUmxkYCK4KYUpSk-L96z-22" value="" style="group" vertex="1" connectable="0" parent="vUmxkYCK4KYUpSk-L96z-42">
          <mxGeometry x="270.00000000000006" y="720" width="110" height="70" as="geometry" />
        </mxCell>
        <mxCell id="vUmxkYCK4KYUpSk-L96z-23" value="" style="ellipse;whiteSpace=wrap;html=1;" vertex="1" parent="vUmxkYCK4KYUpSk-L96z-22">
          <mxGeometry width="110" height="70" as="geometry" />
        </mxCell>
        <mxCell id="vUmxkYCK4KYUpSk-L96z-24" value="Manage Medicines" style="text;html=1;align=center;verticalAlign=middle;whiteSpace=wrap;rounded=0;" vertex="1" parent="vUmxkYCK4KYUpSk-L96z-22">
          <mxGeometry x="15" y="20" width="80" height="30" as="geometry" />
        </mxCell>
        <mxCell id="vUmxkYCK4KYUpSk-L96z-25" value="Unregistered&amp;nbsp;&lt;div&gt;Patient&lt;/div&gt;" style="shape=umlActor;verticalLabelPosition=bottom;verticalAlign=top;html=1;outlineConnect=0;" vertex="1" parent="vUmxkYCK4KYUpSk-L96z-42">
          <mxGeometry x="615" y="210" width="30" height="60" as="geometry" />
        </mxCell>
        <mxCell id="vUmxkYCK4KYUpSk-L96z-26" value="Registered&amp;nbsp;&lt;div&gt;Patient&lt;/div&gt;" style="shape=umlActor;verticalLabelPosition=bottom;verticalAlign=top;html=1;outlineConnect=0;" vertex="1" parent="vUmxkYCK4KYUpSk-L96z-42">
          <mxGeometry x="675" y="300" width="30" height="60" as="geometry" />
        </mxCell>
        <mxCell id="vUmxkYCK4KYUpSk-L96z-29" value="Patient" style="shape=umlActor;verticalLabelPosition=bottom;verticalAlign=top;html=1;outlineConnect=0;" vertex="1" parent="vUmxkYCK4KYUpSk-L96z-42">
          <mxGeometry x="675" y="100" width="30" height="60" as="geometry" />
        </mxCell>
        <mxCell id="vUmxkYCK4KYUpSk-L96z-30" value="" style="endArrow=none;html=1;rounded=0;exitX=0.954;exitY=0.712;exitDx=0;exitDy=0;exitPerimeter=0;" edge="1" parent="vUmxkYCK4KYUpSk-L96z-42" source="vUmxkYCK4KYUpSk-L96z-32">
          <mxGeometry width="50" height="50" relative="1" as="geometry">
            <mxPoint x="525" y="170" as="sourcePoint" />
            <mxPoint x="615" y="240.00096881037814" as="targetPoint" />
          </mxGeometry>
        </mxCell>
        <mxCell id="vUmxkYCK4KYUpSk-L96z-31" value="" style="group" vertex="1" connectable="0" parent="vUmxkYCK4KYUpSk-L96z-42">
          <mxGeometry x="425.00000000000006" y="150" width="110" height="70" as="geometry" />
        </mxCell>
        <mxCell id="vUmxkYCK4KYUpSk-L96z-32" value="" style="ellipse;whiteSpace=wrap;html=1;" vertex="1" parent="vUmxkYCK4KYUpSk-L96z-31">
          <mxGeometry width="110" height="70" as="geometry" />
        </mxCell>
        <mxCell id="vUmxkYCK4KYUpSk-L96z-33" value="Register Patient" style="text;html=1;align=center;verticalAlign=middle;whiteSpace=wrap;rounded=0;" vertex="1" parent="vUmxkYCK4KYUpSk-L96z-31">
          <mxGeometry x="15" y="20" width="80" height="30" as="geometry" />
        </mxCell>
        <mxCell id="vUmxkYCK4KYUpSk-L96z-34" value="" style="endArrow=none;html=1;rounded=0;exitX=1;exitY=0.5;exitDx=0;exitDy=0;" edge="1" parent="vUmxkYCK4KYUpSk-L96z-42" source="vUmxkYCK4KYUpSk-L96z-37">
          <mxGeometry width="50" height="50" relative="1" as="geometry">
            <mxPoint x="505.00000000000006" y="190" as="sourcePoint" />
            <mxPoint x="675" y="330.00096881037814" as="targetPoint" />
          </mxGeometry>
        </mxCell>
        <mxCell id="vUmxkYCK4KYUpSk-L96z-35" value="" style="group" vertex="1" connectable="0" parent="vUmxkYCK4KYUpSk-L96z-42">
          <mxGeometry x="425.00000000000006" y="280" width="110" height="70" as="geometry" />
        </mxCell>
        <mxCell id="vUmxkYCK4KYUpSk-L96z-36" value="" style="group" vertex="1" connectable="0" parent="vUmxkYCK4KYUpSk-L96z-35">
          <mxGeometry width="110" height="70" as="geometry" />
        </mxCell>
        <mxCell id="vUmxkYCK4KYUpSk-L96z-37" value="" style="ellipse;whiteSpace=wrap;html=1;" vertex="1" parent="vUmxkYCK4KYUpSk-L96z-36">
          <mxGeometry width="110" height="70" as="geometry" />
        </mxCell>
        <mxCell id="vUmxkYCK4KYUpSk-L96z-38" value="Sign In Patient" style="text;html=1;align=center;verticalAlign=middle;whiteSpace=wrap;rounded=0;" vertex="1" parent="vUmxkYCK4KYUpSk-L96z-36">
          <mxGeometry x="15" y="20" width="80" height="30" as="geometry" />
        </mxCell>
        <mxCell id="vUmxkYCK4KYUpSk-L96z-39" value="" style="endArrow=none;html=1;rounded=0;" edge="1" parent="vUmxkYCK4KYUpSk-L96z-42">
          <mxGeometry width="50" height="50" relative="1" as="geometry">
            <mxPoint x="645" y="240" as="sourcePoint" />
            <mxPoint x="690" y="240" as="targetPoint" />
          </mxGeometry>
        </mxCell>
        <mxCell id="vUmxkYCK4KYUpSk-L96z-40" value="" style="endArrow=classic;html=1;rounded=0;entryX=0.198;entryY=0.104;entryDx=0;entryDy=0;entryPerimeter=0;" edge="1" parent="vUmxkYCK4KYUpSk-L96z-42" target="vUmxkYCK4KYUpSk-L96z-1">
          <mxGeometry width="50" height="50" relative="1" as="geometry">
            <mxPoint x="690" y="290" as="sourcePoint" />
            <mxPoint x="730" y="270" as="targetPoint" />
          </mxGeometry>
        </mxCell>
        <mxCell id="vUmxkYCK4KYUpSk-L96z-41" value="Doctor" style="shape=umlActor;verticalLabelPosition=bottom;verticalAlign=top;html=1;outlineConnect=0;" vertex="1" parent="vUmxkYCK4KYUpSk-L96z-42">
          <mxGeometry x="675" y="580" width="30" height="60" as="geometry" />
        </mxCell>
        <mxCell id="vUmxkYCK4KYUpSk-L96z-43" value="" style="endArrow=none;html=1;rounded=0;exitX=0.968;exitY=0.705;exitDx=0;exitDy=0;exitPerimeter=0;" edge="1" parent="vUmxkYCK4KYUpSk-L96z-42" source="vUmxkYCK4KYUpSk-L96z-46">
          <mxGeometry width="50" height="50" relative="1" as="geometry">
            <mxPoint x="520" y="480" as="sourcePoint" />
            <mxPoint x="675" y="610.0009688103781" as="targetPoint" />
          </mxGeometry>
        </mxCell>
        <mxCell id="vUmxkYCK4KYUpSk-L96z-44" value="" style="group" vertex="1" connectable="0" parent="vUmxkYCK4KYUpSk-L96z-42">
          <mxGeometry x="425.00000000000006" y="465" width="110" height="70" as="geometry" />
        </mxCell>
        <mxCell id="vUmxkYCK4KYUpSk-L96z-45" value="" style="group" vertex="1" connectable="0" parent="vUmxkYCK4KYUpSk-L96z-44">
          <mxGeometry width="110" height="70" as="geometry" />
        </mxCell>
        <mxCell id="vUmxkYCK4KYUpSk-L96z-46" value="" style="ellipse;whiteSpace=wrap;html=1;" vertex="1" parent="vUmxkYCK4KYUpSk-L96z-45">
          <mxGeometry width="110" height="70" as="geometry" />
        </mxCell>
        <mxCell id="vUmxkYCK4KYUpSk-L96z-47" value="Sign In&amp;nbsp;&lt;span style=&quot;background-color: initial;&quot;&gt;Doctor&lt;/span&gt;" style="text;html=1;align=center;verticalAlign=middle;whiteSpace=wrap;rounded=0;" vertex="1" parent="vUmxkYCK4KYUpSk-L96z-45">
          <mxGeometry x="15" y="20" width="80" height="30" as="geometry" />
        </mxCell>
      </root>
    </mxGraphModel>
  </diagram>
</mxfile>
